<svg height="512" viewBox="0 0 64 64" width="512" xmlns="http://www.w3.org/2000/svg"><g id="flat"><path d="m53 14-6-9h-16l-6 9v6l-1 6a2.843 2.843 0 0 0 2 3l5 2h17l4-2a2.843 2.843 0 0 0 2-3l-1-6z" fill="#ad6327"/><path d="m61 43a12 12 0 0 0 -12-12h-18v11l4 6v9h-1.916a2.048 2.048 0 0 0 -1.984 1.348 2.007 2.007 0 0 0 1.9 2.652h7l2-10-1-4 5.988 2a4.1 4.1 0 0 0 -.988 4l2 4h-2.916a2.048 2.048 0 0 0 -1.984 1.348 2.007 2.007 0 0 0 1.9 2.652h16l-2-4 2-2z" fill="#d3843d"/><path d="m31 42-4 1-5 3-4 1a3 3 0 0 1 -3-3 3 3 0 0 1 3-3h2l5-3 6-5z" fill="#ad6327"/><path d="m17 28h-2l-2-2h-4l-2 2h-4v5h13v3h5v-4a4 4 0 0 0 -4-4z" fill="#87cee9"/><path d="m9 22h4v4h-4z" fill="#2d75bb"/><path d="m3 18h16v4h-16z" fill="#da1c4b"/><path d="m12 38s-4.5-2.11-7-1c-3.1 1.377-.9 4.887 2 3a11.308 11.308 0 0 1 5-2z" fill="#50b4f8"/><path d="m10 44s-4.689.535-6 3c-1.563 2.937 3.125 5.5 4 2a15.593 15.593 0 0 1 2-5z" fill="#50b4f8"/><path d="m35 55h3v2h-3z" fill="#ad6327"/><path d="m46.654 56.553-1.554-3.106-.063-.159a5.118 5.118 0 0 1 2.355-5.872 4.74 4.74 0 0 1 3.057-.489 3.384 3.384 0 0 1 .992.178l3.106 1.553a1 1 0 0 1 .453 1.342 1 1 0 0 1 -1.342.447l-3.037-1.518a2.779 2.779 0 0 0 -2.825.673 3.121 3.121 0 0 0 -.857 3.04l1.508 3.016a1 1 0 0 1 -.447 1.342 1 1 0 0 1 -1.346-.447z" fill="#ad6327"/><path d="m40.981 21h-4l-2-4h8z" fill="#301a12"/><path d="m37 5h4v12h-4z" fill="#ffd782"/><path d="m47 5 4-2s3.984-1 4.984 4a18.407 18.407 0 0 0 1.9 5.49 1 1 0 0 1 -.784 1.51h-4.1z" fill="#d3843d"/><path d="m31 5-4.019-2s-4-1-5 4a18.407 18.407 0 0 1 -1.9 5.49 1 1 0 0 0 .858 1.51h4.061z" fill="#d3843d"/><path d="m45.005 19-2-2-2 4h-4.024l-2-4-2 2a14.346 14.346 0 0 0 -2.954 5.04c-.255 1.55 1.394 2.96 2.966 2.96 4 0 6-1 6-4 0 3 2 4 6 4 1.571 0 3.255-1.449 3-3a14.718 14.718 0 0 0 -2.988-5z" fill="#f9bb4b"/><path d="m31 13h2v2h-2z" fill="#301a12"/><path d="m44 13h2v2h-2z" fill="#301a12"/><g fill="#ad6327"><path d="m58 44h-2c0-6.148-3.21-7.021-3.243-7.03l.486-1.94c.194.048 4.757 1.278 4.757 8.97z"/><path d="m56 46h2v2h-2z"/></g></g></svg>