<svg height="452pt" viewBox="0 -49 452.002 452" width="452pt" xmlns="http://www.w3.org/2000/svg"><path d="m243.691406 22.359375c-1.949218 23.128906-26.050781 26.78125-26.050781 26.78125 20.695313.972656 25.847656 28.117187 25.847656 28.117187.445313-19.355468 26.644531-28.402343 26.644531-28.402343-19.625-1.175781-26.441406-26.496094-26.441406-26.496094zm0 0" fill="#d7e057"/><path d="m270.3125 45.859375c-17.210938-1.03125-23.664062-24.050781-23.726562-24.285156-.382813-1.402344-1.730469-2.335938-3.167969-2.203125-1.449219.132812-2.597657 1.285156-2.71875 2.734375-1.71875 20.429687-22.625 23.929687-23.507813 24.066406-1.527344.230469-2.625 1.582031-2.546875 3.121094.082031 1.542969 1.316407 2.769531 2.859375 2.84375 18.054688.847656 22.992188 25.433593 23.042969 25.683593.273437 1.421876 1.515625 2.433594 2.941406 2.433594.085938 0 .167969 0 .253907-.011718 1.527343-.125 2.714843-1.382813 2.746093-2.917969.390625-17.015625 24.386719-25.550781 24.628907-25.636719 1.347656-.46875 2.183593-1.828125 1.988281-3.246094-.199219-1.414062-1.367188-2.496094-2.792969-2.582031zm-27.132812 20.6875c-2.710938-6.257813-7.414063-13.8125-15.171876-17.75 5.863282-2.8125 12.816407-7.828125 16.402344-16.546875 3.105469 6.140625 8.402344 13.761719 16.667969 17.445312-6.015625 3.28125-13.84375 8.8125-17.898437 16.851563zm0 0" fill="#3a312a"/><path d="m200.292969 56.320312c-1.378907 16.359376-18.425781 18.941407-18.425781 18.941407 14.636718.6875 18.28125 19.886719 18.28125 19.886719.3125-13.6875 18.84375-20.089844 18.84375-20.089844-13.878907-.832032-18.699219-18.738282-18.699219-18.738282zm0 0" fill="#d7e057"/><path d="m219.175781 72.0625c-11.535156-.6875-15.945312-16.371094-15.988281-16.527344-.382812-1.40625-1.710938-2.339844-3.164062-2.207031-1.453126.132813-2.597657 1.285156-2.722657 2.738281-1.15625 13.742188-15.289062 16.132813-15.882812 16.226563-1.527344.230469-2.625 1.582031-2.546875 3.125.082031 1.539062 1.316406 2.765625 2.855468 2.839843 12.070313.566407 15.449219 17.289063 15.480469 17.453126.269531 1.421874 1.515625 2.4375 2.945313 2.4375.082031 0 .164062 0 .25-.007813 1.53125-.125 2.714844-1.386719 2.75-2.921875.261718-11.417969 16.664062-17.265625 16.824218-17.324219 1.351563-.464843 2.1875-1.824219 1.992188-3.242187-.195312-1.417969-1.363281-2.503906-2.792969-2.589844zm-19.167969 13.589844c-1.851562-3.769532-4.683593-7.890625-8.894531-10.558594 3.707031-2.082031 7.394531-5.257812 9.742188-9.832031 2.113281 3.75 5.304687 7.910156 9.878906 10.449219-3.699219 2.199218-7.976563 5.480468-10.726563 9.941406zm0 0" fill="#3a312a"/><path d="m200.292969 3.007812c-1.378907 16.355469-18.425781 18.941407-18.425781 18.941407 14.636718.6875 18.28125 19.886719 18.28125 19.886719.3125-13.6875 18.84375-20.09375 18.84375-20.09375-13.878907-.828126-18.699219-18.734376-18.699219-18.734376zm0 0" fill="#d7e057"/><path d="m219.175781 18.75c-11.480469-.6875-15.902343-16.226562-15.988281-16.527344-.378906-1.40625-1.730469-2.34375-3.164062-2.207031-1.453126.128906-2.597657 1.28125-2.722657 2.734375-1.15625 13.742188-15.289062 16.132812-15.882812 16.226562-1.527344.230469-2.625 1.582032-2.546875 3.125.082031 1.539063 1.316406 2.765626 2.855468 2.839844 12.070313.570313 15.449219 17.289063 15.476563 17.453125.269531 1.425781 1.519531 2.441407 2.945313 2.441407.082031 0 .164062-.003907.25-.011719 1.53125-.125 2.714843-1.386719 2.75-2.921875.261718-11.417969 16.664062-17.269532 16.824218-17.324219 1.355469-.46875 2.1875-1.824219 1.992188-3.242187-.191406-1.417969-1.359375-2.5-2.789063-2.585938zm-19.167969 13.589844c-1.851562-3.769532-4.683593-7.894532-8.894531-10.558594 3.707031-2.085938 7.394531-5.261719 9.742188-9.835938 2.113281 3.75 5.304687 7.910157 9.878906 10.449219-3.699219 2.203125-7.976563 5.480469-10.726563 9.945313zm0 0" fill="#3a312a"/><path d="m276.140625 141.835938-27.78125-2.359376c-7.339844-.359374-14.78125-.558593-22.359375-.558593-45.820312 0-87.621094 7.019531-119.28125 18.558593l4.160156 18.097657c4.902344 21.382812 23.941406 36.542969 45.882813 36.542969h138.476562c21.941407 0 40.980469-15.160157 45.882813-36.542969l4.140625-18.078125c-19.621094-7.160156-43.160157-12.578125-69.121094-15.660156zm0 0" fill="#f16c7a"/><path d="m346.289062 154.679688c-20.027343-7.308594-44.164062-12.78125-69.894531-15.832032l-27.886719-2.367187c-7.625-.375-15.199218-.5625-22.507812-.5625-44.425781 0-87.148438 6.652343-120.308594 18.738281-1.421875.519531-2.234375 2.015625-1.894531 3.492188l4.160156 18.097656c5.246094 22.886718 25.3125 38.871094 48.804688 38.871094h138.476562c23.492188 0 43.558594-15.984376 48.804688-38.871094l4.140625-18.078125c.339844-1.476563-.476563-2.972657-1.894532-3.488281zm-8.09375 20.226562c-4.617187 20.140625-22.28125 34.210938-42.957031 34.210938h-138.476562c-20.675781 0-38.339844-14.070313-42.957031-34.214844l-3.5625-15.5c32.152343-11.285156 73.128906-17.484375 115.757812-17.484375 7.210938 0 14.683594.1875 22.105469.546875l27.679687 2.351562c24.121094 2.863282 46.855469 7.898438 65.957032 14.609375zm0 0" fill="#3a312a"/><path d="m401.933594 73.921875c-21.941406 0-40.972656 15.15625-45.878906 36.539063l-14.933594 65.109374c-4.90625 21.382813-23.9375 36.542969-45.878906 36.542969h-138.488282c-21.941406 0-40.96875-15.160156-45.875-36.542969l-14.9375-65.109374c-4.90625-21.382813-23.933594-36.539063-45.875-36.539063-25.996094 0-47.070312 21.070313-47.070312 47.0625v182.253906c0 25.996094 21.074218 47.066407 47.070312 47.066407h351.867188c25.992187 0 47.066406-21.070313 47.066406-47.066407v-182.253906c0-25.992187-21.070312-47.0625-47.066406-47.0625zm0 0" fill="#8ac6dd"/><path d="m401.933594 70.921875c-23.484375 0-43.550782 15.980469-48.800782 38.871094l-14.933593 65.105469c-4.625 20.144531-22.285157 34.214843-42.953125 34.214843h-138.492188c-20.667968 0-38.328125-14.070312-42.953125-34.214843l-14.933593-65.105469c-5.25-22.890625-25.320313-38.871094-48.800782-38.871094-27.605468 0-50.066406 22.457031-50.066406 50.0625v59.851563c0 1.65625 1.34375 3 3 3s3-1.34375 3-3v-59.851563c0-24.296875 19.769531-44.0625 44.066406-44.0625 20.667969 0 38.328125 14.066406 42.953125 34.210937l14.9375 65.109376c5.25 22.886718 25.316407 38.871093 48.800781 38.871093h138.488282c23.484375 0 43.550781-15.984375 48.800781-38.871093l14.9375-65.109376c4.621094-20.144531 22.285156-34.210937 42.953125-34.210937 24.296875 0 44.066406 19.765625 44.066406 44.0625v182.253906c0 24.300781-19.769531 44.070313-44.066406 44.070313h-351.871094c-24.296875 0-44.066406-19.769532-44.066406-44.070313v-92.761719c0-1.65625-1.34375-3-3-3s-3 1.34375-3 3v92.761719c0 27.609375 22.460938 50.070313 50.066406 50.070313h351.867188c27.609375 0 50.070312-22.460938 50.070312-50.070313v-182.253906c-.003906-27.605469-22.464844-50.0625-50.070312-50.0625zm0 0" fill="#3a312a"/><path d="m232.191406 277.351562c-15.257812 0-27.628906 15.019532-27.628906 27.683594 0 12.667969 12.371094 14.875 27.628906 14.875 15.257813 0 27.625-2.207031 27.625-14.875 0-12.664062-12.367187-27.683594-27.625-27.683594zm0 0" fill="#87796f"/><path d="m232.191406 274.351562c-14.164062 0-30.628906 13.402344-30.628906 30.683594 0 17.875 20.683594 17.875 30.628906 17.875 9.941406 0 30.625 0 30.625-17.875 0-17.28125-16.460937-30.683594-30.625-30.683594zm0 42.558594c-17.722656 0-24.628906-3.328125-24.628906-11.875 0-13.671875 13.472656-24.683594 24.628906-24.683594s24.625 11.011719 24.625 24.683594c0 8.546875-6.90625 11.875-24.625 11.875zm0 0" fill="#3a312a"/><path d="m243.011719 253.8125c0-7.667969-4.847657-13.886719-10.820313-13.886719-5.976562 0-10.820312 6.21875-10.820312 13.886719s4.84375 13.886719 10.820312 13.886719c5.972656 0 10.820313-6.21875 10.820313-13.886719zm0 0" fill="#87796f"/><path d="m232.191406 236.929688c-7.621094 0-13.820312 7.574218-13.820312 16.882812s6.199218 16.886719 13.820312 16.886719c7.617188 0 13.820313-7.578125 13.820313-16.886719s-6.203125-16.882812-13.820313-16.882812zm0 27.769531c-4.242187 0-7.820312-4.988281-7.820312-10.886719 0-5.902344 3.578125-10.882812 7.820312-10.882812 4.238282 0 7.820313 4.980468 7.820313 10.882812 0 5.898438-3.582031 10.886719-7.820313 10.886719zm0 0" fill="#3a312a"/><path d="m210.960938 259.757812c-3.582032-6.78125-10.769532-10.015624-16.054688-7.222656-5.28125 2.789063-6.660156 10.550782-3.078125 17.332032s10.769531 10.011718 16.054687 7.222656c3.128907-1.652344 4.890626-5.050782 5.058594-8.953125.117188-2.6875-.519531-5.613281-1.980468-8.378907zm0 0" fill="#87796f"/><path d="m213.613281 258.355469c-4.351562-8.234375-13.375-12.039063-20.105469-8.472657-3.390624 1.792969-5.671874 5.089844-6.417968 9.296876-.699219 3.925781.042968 8.21875 2.085937 12.085937 3.242188 6.136719 9.078125 9.808594 14.628907 9.808594 1.898437 0 3.761718-.429688 5.480468-1.335938 3.941406-2.082031 6.429688-6.371093 6.652344-11.472656.148438-3.328125-.65625-6.757813-2.324219-9.910156zm-7.132812 16.082031c-3.75 1.980469-9.246094-.757812-12-5.972656-1.421875-2.691406-1.949219-5.617188-1.484375-8.238282.414062-2.339843 1.59375-4.132812 3.3125-5.039062.832031-.4375 1.746094-.648438 2.699218-.648438 3.347657 0 7.152344 2.558594 9.300782 6.617188 1.167968 2.214844 1.730468 4.582031 1.632812 6.847656-.128906 2.996094-1.390625 5.339844-3.460937 6.433594zm0 0" fill="#3a312a"/><path d="m188.695312 280.390625c-6.105468-4.636719-13.988281-4.542969-17.601562.214844-3.617188 4.757812-1.597656 12.375 4.507812 17.015625 6.105469 4.640625 13.988282 4.546875 17.601563-.214844 3.617187-4.757812 1.597656-12.375-4.507813-17.015625zm0 0" fill="#87796f"/><path d="m190.511719 278.003906c-3.484375-2.644531-7.585938-4.089844-11.589844-4.03125-4.269531.054688-7.898437 1.761719-10.21875 4.816406-4.609375 6.070313-2.332031 15.585938 5.082031 21.222657 3.425782 2.601562 7.460938 4.027343 11.390625 4.027343h.199219c4.269531-.050781 7.898438-1.761718 10.21875-4.816406 4.609375-6.066406 2.328125-15.585937-5.082031-21.21875zm.300781 17.589844c-1.175781 1.546875-3.132812 2.417969-5.511719 2.445312-2.6875.027344-5.460937-.964843-7.882812-2.804687-4.699219-3.570313-6.5-9.4375-3.9375-12.8125 1.175781-1.546875 3.136719-2.417969 5.515625-2.445313h.128906c2.621094 0 5.371094.992188 7.757812 2.808594 4.695313 3.566406 6.496094 9.433594 3.929688 12.808594zm0 0" fill="#3a312a"/><path d="m269.640625 252.535156c-5.28125-2.792968-12.46875.441406-16.050781 7.222656-3.582032 6.777344-2.207032 14.539063 3.078125 17.332032 5.285156 2.789062 12.46875-.445313 16.054687-7.226563 3.582032-6.78125 2.203125-14.539062-3.082031-17.328125zm0 0" fill="#87796f"/><path d="m277.460938 259.179688c-.75-4.207032-3.027344-7.507813-6.417969-9.296876-6.738281-3.566406-15.757813.242188-20.105469 8.472657-2.042969 3.867187-2.785156 8.164062-2.085938 12.089843.746094 4.203126 3.023438 7.503907 6.417969 9.292969 1.714844.90625 3.585938 1.363281 5.523438 1.363281 1.894531 0 3.847656-.433593 5.769531-1.300781 3.640625-1.636719 6.765625-4.667969 8.8125-8.535156 2.039062-3.867187 2.78125-8.160156 2.085938-12.085937zm-7.390626 9.285156c-1.421874 2.691406-3.539062 4.773437-5.964843 5.867187-2.171875.976563-4.316407 1.011719-6.035157.105469-1.71875-.910156-2.894531-2.699219-3.3125-5.042969-.464843-2.617187.0625-5.542969 1.484376-8.234375 2.757812-5.214844 8.253906-7.949218 12-5.972656 1.71875.910156 2.894531 2.699219 3.3125 5.042969.464843 2.617187-.0625 5.542969-1.484376 8.234375zm0 0" fill="#3a312a"/><path d="m292.90625 280.605469c-3.613281-4.757813-11.496094-4.851563-17.601562-.214844-6.105469 4.640625-8.121094 12.257813-4.507813 17.015625 3.613281 4.761719 11.496094 4.855469 17.601563.214844 6.105468-4.640625 8.125-12.257813 4.507812-17.015625zm0 0" fill="#87796f"/><path d="m295.296875 278.789062c-4.613281-6.066406-14.394531-6.421874-21.808594-.785156-7.410156 5.632813-9.691406 15.152344-5.082031 21.21875 2.320312 3.054688 5.953125 4.765625 10.21875 4.816406h.199219c3.929687 0 7.964843-1.425781 11.390625-4.027343 7.410156-5.636719 9.691406-15.152344 5.082031-21.222657zm-8.710937 16.445313c-2.425782 1.839844-5.21875 2.828125-7.882813 2.804687-2.382813-.027343-4.339844-.898437-5.515625-2.445312-2.5625-3.375-.761719-9.242188 3.9375-12.8125 2.4375-1.851562 5.261719-2.789062 7.773438-2.789062 2.332031 0 4.390624.804687 5.625 2.429687 2.5625 3.375.757812 9.242187-3.9375 12.8125zm0 0" fill="#3a312a"/><path d="m401.941406 76.917969c-5.28125 0-10.363281.917969-15.0625 2.617187 16.960938 6.121094 29.121094 22.402344 29.121094 41.460938v182.238281c0 24.300781-19.761719 44.082031-44.058594 44.082031h30c24.296875 0 44.058594-19.78125 44.058594-44.082031v-182.238281c0-24.300782-19.761719-44.078125-44.058594-44.078125zm0 0" fill="#6ca8bf"/></svg>