<svg height="512" viewBox="0 0 58 58" width="512" xmlns="http://www.w3.org/2000/svg"><g id="Page-1" fill="none" fill-rule="evenodd"><g id="040---Pet-First-Aid" fill-rule="nonzero"><rect id="Rectangle-path" fill="#26b99a" height="44" rx="4" width="58" y="14"/><path id="Shape" d="m21 12v-6c0-1.1045695.8954305-2 2-2h12c1.1045695 0 2 .8954305 2 2v6h4v-6c-.0033074-3.31233757-2.6876624-5.99669262-6-6h-12c-3.3123376.00330738-5.9966926 2.68766243-6 6v6z" fill="#35495e"/><path id="Shape" d="m17 10h4c.5522847 0 1 .4477153 1 1v3h-6v-3c0-.5522847.4477153-1 1-1z" fill="#14a085"/><path id="Shape" d="m37 10h4c.5522847 0 1 .4477153 1 1v3h-6v-3c0-.5522847.4477153-1 1-1z" fill="#14a085"/><path id="Shape" d="m36 24.71v-1.71c0-2.7614237-2.2385763-5-5-5h-4c-2.7614237 0-5 2.2385763-5 5v1.75l-.84 4.25h-5.16c-2.7614237 0-5 2.2385763-5 5v4c0 2.7614237 2.2385763 5 5 5h5.08l.92 3.29v2.71c0 2.7614237 2.2385763 5 5 5h4c2.7614237 0 5-2.2385763 5-5v-2.71l.92-3.29h5.08c1.3260824 0 2.597852-.5267842 3.5355339-1.4644661s1.4644661-2.2094515 1.4644661-3.5355339v-4c0-2.7614237-2.2385763-5-5-5h-5.13z" fill="#e64c3c"/><g fill="#65ddb9"><path id="Shape" d="m4 21c-.55228475 0-1-.4477153-1-1v-2c0-.5522847.44771525-1 1-1s1 .4477153 1 1v2c0 .5522847-.44771525 1-1 1z"/><path id="Shape" d="m4 49c-.55228475 0-1-.4477153-1-1v-24c0-.5522847.44771525-1 1-1s1 .4477153 1 1v24c0 .5522847-.44771525 1-1 1z"/><path id="Shape" d="m4 55c-.55228475 0-1-.4477153-1-1v-2c0-.5522847.44771525-1 1-1s1 .4477153 1 1v2c0 .5522847-.44771525 1-1 1z"/><path id="Shape" d="m54 21c-.5522847 0-1-.4477153-1-1v-2c0-.5522847.4477153-1 1-1s1 .4477153 1 1v2c0 .5522847-.4477153 1-1 1z"/><path id="Shape" d="m54 49c-.5522847 0-1-.4477153-1-1v-24c0-.5522847.4477153-1 1-1s1 .4477153 1 1v24c0 .5522847-.4477153 1-1 1z"/><path id="Shape" d="m54 55c-.5522847 0-1-.4477153-1-1v-2c0-.5522847.4477153-1 1-1s1 .4477153 1 1v2c0 .5522847-.4477153 1-1 1z"/></g><path id="Shape" d="m29 45.917c1.925 0 2.887 1.083 4.811 1.083 3.849 0 3.849-4.333 1.925-6.5s-2.887-6.5-6.736-6.5-4.811 4.333-6.736 6.5-1.924 6.5 1.925 6.5c1.924 0 2.886-1.083 4.811-1.083z" fill="#ecf0f1"/><ellipse id="Oval" cx="24" cy="27.975" fill="#ecf0f1" rx="3" ry="4" transform="matrix(.985 -.171 .171 .985 -4.419 4.503)"/><ellipse id="Oval" cx="18.549" cy="35.96" fill="#ecf0f1" rx="2.5" ry="3" transform="matrix(.955 -.297 .297 .955 -9.833 7.122)"/><ellipse id="Oval" cx="34.034" cy="27.975" fill="#ecf0f1" rx="4" ry="3" transform="matrix(.171 -.985 .985 .171 .664 56.74)"/><ellipse id="Oval" cx="39.451" cy="35.96" fill="#ecf0f1" rx="3" ry="2.5" transform="matrix(.297 -.955 .955 .297 -6.595 62.966)"/></g></g></svg>